<svg viewBox="0 0 24 24" fill="none" xmlns="http://www.w3.org/2000/svg">
<path fill-rule="evenodd" clip-rule="evenodd" d="M12 2.25464C6.61522 2.25464 2.25 6.61986 2.25 12.0046C2.25 17.3894 6.61522 21.7546 12 21.7546C17.3848 21.7546 21.75 17.3894 21.75 12.0046C21.75 6.61986 17.3848 2.25464 12 2.25464ZM6.26197 6.07694C4.71293 7.57672 3.75 9.67823 3.75 12.0046C3.75 16.561 7.44365 20.2546 12 20.2546C16.5563 20.2546 20.25 16.561 20.25 12.0046C20.25 9.24925 18.8992 6.80936 16.8237 5.31104C16.4863 5.85009 16.0374 6.31295 15.5056 6.66753L14.2499 7.50464L14.4145 7.83382C14.6835 8.37173 14.2923 9.00464 13.6909 9.00464C13.5653 9.00464 13.4414 8.9754 13.3291 8.91923L12.7252 8.61726C12.2921 8.40071 11.769 8.48559 11.4266 8.828L11.2954 8.95914C10.8561 9.39848 10.8561 10.1108 11.2954 10.5501L11.5905 10.8453C11.8474 11.1022 12.2126 11.2192 12.571 11.1595L13.7411 10.9644C14.0641 10.9106 14.3946 11.0002 14.6462 11.2099L15.9755 12.3177C16.2962 12.5848 16.4356 13.0119 16.3344 13.4168C15.9519 14.9466 15.1609 16.3436 14.046 17.4586L13.3233 18.1813C12.9809 18.5237 12.4578 18.6086 12.0247 18.392L11.8718 18.3156C11.4907 18.125 11.2499 17.7355 11.2499 17.3094V16.2206C11.2499 15.9223 11.1314 15.6361 10.9204 15.4251L9.57328 14.078C9.23087 13.7356 9.14599 13.2125 9.36254 12.7794L9.74992 12.0046L8.10954 10.3643C7.22527 9.47999 6.6394 8.34153 6.43381 7.10801L6.26197 6.07694Z" fill="white"/>
</svg>
