<svg viewBox="0 0 24 24" fill="none" xmlns="http://www.w3.org/2000/svg">
<path d="M10.3426 3.94469C10.433 3.40223 10.9023 3.00464 11.4523 3.00464H12.5462C13.0962 3.00464 13.5655 3.40223 13.6559 3.94469L13.8049 4.8385C13.8756 5.26277 14.1886 5.60302 14.5858 5.76796C14.9832 5.93296 15.4396 5.91092 15.7897 5.66081L16.5273 5.13397C16.9748 4.81433 17.5878 4.86506 17.9767 5.25393L18.7502 6.02748C19.1391 6.41635 19.1898 7.02936 18.8702 7.47687L18.3432 8.2147C18.0931 8.56476 18.0711 9.02097 18.236 9.41827C18.4009 9.81542 18.7411 10.1283 19.1652 10.199L20.0592 10.348C20.6017 10.4384 20.9993 10.9077 20.9993 11.4577V12.5516C20.9993 13.1016 20.6017 13.5709 20.0592 13.6613L19.1654 13.8103C18.7411 13.881 18.4009 14.1939 18.236 14.5912C18.071 14.9886 18.093 15.4449 18.3431 15.795L18.8698 16.5325C19.1895 16.98 19.1388 17.593 18.7499 17.9819L17.9763 18.7554C17.5875 19.1443 16.9745 19.195 16.5269 18.8754L15.7893 18.3485C15.4393 18.0985 14.983 18.0764 14.5857 18.2414C14.1885 18.4063 13.8756 18.7465 13.8049 19.1707L13.6559 20.0646C13.5655 20.607 13.0962 21.0046 12.5462 21.0046H11.4523C10.9023 21.0046 10.433 20.607 10.3426 20.0646L10.1936 19.1708C10.1229 18.7465 9.80999 18.4063 9.41275 18.2413C9.01535 18.0763 8.55902 18.0984 8.20887 18.3485L7.47125 18.8753C7.02374 19.195 6.41073 19.1443 6.02186 18.7554L5.24831 17.9818C4.85944 17.593 4.80871 16.98 5.12835 16.5324L5.65539 15.7946C5.90543 15.4445 5.92747 14.9883 5.76252 14.591C5.59764 14.1939 5.25746 13.881 4.83329 13.8103L3.93932 13.6613C3.39686 13.5709 2.99927 13.1016 2.99927 12.5516V11.4577C2.99927 10.9077 3.39686 10.4384 3.93932 10.348L4.83312 10.199C5.2574 10.1283 5.59765 9.81535 5.76259 9.41811C5.92759 9.02069 5.90556 8.56434 5.65544 8.21418L5.12875 7.4768C4.8091 7.02929 4.85983 6.41628 5.2487 6.02741L6.02225 5.25386C6.41112 4.86499 7.02413 4.81426 7.47164 5.13391L8.20924 5.66076C8.55931 5.91082 9.01555 5.93286 9.41287 5.7679C9.81004 5.60301 10.1229 5.26282 10.1936 4.83864L10.3426 3.94469Z" stroke="#64748B" stroke-width="1.5" stroke-linecap="round" stroke-linejoin="round"/>
<path d="M15 12.0047C15 13.6615 13.6568 15.0047 12 15.0047C10.3431 15.0047 8.99997 13.6615 8.99997 12.0047C8.99997 10.3478 10.3431 9.00466 12 9.00466C13.6568 9.00466 15 10.3478 15 12.0047Z" stroke="#64748B" stroke-width="1.5" stroke-linecap="round" stroke-linejoin="round"/>
</svg>
