<svg width="751" height="300" viewBox="0 0 751 300" fill="none" xmlns="http://www.w3.org/2000/svg">
<path fill-rule="evenodd" clip-rule="evenodd" d="M751 0.868164C699.992 14.9881 663.169 55.3779 663.169 103C663.169 109.429 663.84 115.726 665.127 121.844C635.592 132.294 611.155 151.342 595.949 175.403C592.109 174.952 588.197 174.72 584.227 174.72C557.513 174.72 533.397 185.235 516.259 202.124C507.48 199.911 498.153 198.72 488.486 198.72C466.597 198.72 446.453 204.827 430.462 215.072C419.762 211.618 408.102 209.72 395.901 209.72C381.308 209.72 367.49 212.435 355.162 217.28C338.687 205.711 317.265 198.72 293.847 198.72C277.939 198.72 262.952 201.946 249.811 207.641C232.967 186.77 204.032 172.999 171.163 172.999C161.857 172.999 152.865 174.103 144.374 176.16C135.069 145.857 108.79 121.075 74.296 108.985C74.3164 108.325 74.3267 107.663 74.3267 106.999C74.3267 70.038 42.4795 39.1592 0 31.7109V297.623C0.306554 297.679 0.613545 297.734 0.920967 297.788C1.29861 298.436 1.69208 299.08 2.10114 299.72H751V0.868164Z" fill="white"/>
</svg>
