<svg viewBox="0 0 24 24" fill="none" xmlns="http://www.w3.org/2000/svg">
<path d="M12 21.0046C16.1926 21.0046 19.7156 18.1379 20.7157 14.2576M12 21.0046C7.80742 21.0046 4.28442 18.1379 3.2843 14.2576M12 21.0046C14.4853 21.0046 16.5 16.9752 16.5 12.0046C16.5 7.03408 14.4853 3.00464 12 3.00464M12 21.0046C9.51472 21.0046 7.5 16.9752 7.5 12.0046C7.5 7.03408 9.51472 3.00464 12 3.00464M12 3.00464C15.3652 3.00464 18.299 4.85158 19.8431 7.58709M12 3.00464C8.63481 3.00464 5.70099 4.85158 4.15692 7.58709M19.8431 7.58709C17.7397 9.40503 14.9983 10.5046 12 10.5046C9.00172 10.5046 6.26027 9.40503 4.15692 7.58709M19.8431 7.58709C20.5797 8.89207 21 10.3993 21 12.0046C21 12.7826 20.9013 13.5376 20.7157 14.2576M20.7157 14.2576C18.1334 15.6894 15.1619 16.5046 12 16.5046C8.8381 16.5046 5.86662 15.6894 3.2843 14.2576M3.2843 14.2576C3.09871 13.5376 3 12.7826 3 12.0046C3 10.3993 3.42032 8.89207 4.15692 7.58709" stroke="white" stroke-width="1.5" stroke-linecap="round" stroke-linejoin="round"/>
</svg>
