<svg viewBox="0 0 70 50" fill="none" xmlns="http://www.w3.org/2000/svg">
<line y1="-1.5" x2="28.8958" y2="-1.5" transform="matrix(0.874791 0.4845 -0.49272 0.870188 35.3887 10)" stroke="#64748B" stroke-width="3"/>
<line y1="-1.5" x2="29.933" y2="-1.5" transform="matrix(0.874781 -0.484518 0.492738 0.870178 34.9355 39.252)" stroke="#64748B" stroke-width="3"/>
<line y1="-1.5" x2="28.8958" y2="-1.5" transform="matrix(0.874791 -0.4845 0.49272 0.870188 10.1113 24)" stroke="#64748B" stroke-width="3"/>
<line y1="-1.5" x2="29.916" y2="-1.5" transform="matrix(0.844959 0.534831 -0.543282 0.83955 10.1113 24)" stroke="#64748B" stroke-width="3"/>
<path d="M43.1066 10.0806C43.1066 14.8713 39.3746 18.6613 34.8843 18.6613C30.394 18.6613 26.6621 14.8713 26.6621 10.0806C26.6621 5.29004 30.394 1.5 34.8843 1.5C39.3746 1.5 43.1066 5.29004 43.1066 10.0806Z" fill="white" stroke="#64748B" stroke-width="3"/>
<path d="M43.1066 39.9195C43.1066 44.7101 39.3746 48.5002 34.8843 48.5002C30.394 48.5002 26.6621 44.7101 26.6621 39.9195C26.6621 35.1289 30.394 31.3389 34.8843 31.3389C39.3746 31.3389 43.1066 35.1289 43.1066 39.9195Z" fill="white" stroke="#64748B" stroke-width="3"/>
<path d="M17.9444 24.0806C17.9444 28.8713 14.2125 32.6613 9.72222 32.6613C5.23194 32.6613 1.5 28.8713 1.5 24.0806C1.5 19.29 5.23194 15.5 9.72222 15.5C14.2125 15.5 17.9444 19.29 17.9444 24.0806Z" fill="white" stroke="#64748B" stroke-width="3"/>
<path d="M52.0556 24.0806C52.0556 28.8713 55.7875 32.6613 60.2778 32.6613C64.7681 32.6613 68.5 28.8713 68.5 24.0806C68.5 19.29 64.7681 15.5 60.2778 15.5C55.7875 15.5 52.0556 19.29 52.0556 24.0806Z" fill="white" stroke="#64748B" stroke-width="3"/>
</svg>
