<svg width="24" height="24" viewBox="0 0 24 24" fill="none" xmlns="http://www.w3.org/2000/svg">
<path d="M9.94775 7.51884C11.1193 6.49372 13.0188 6.49372 14.1904 7.51884C15.362 8.54397 15.362 10.206 14.1904 11.2312C13.9865 11.4096 13.7605 11.5569 13.5202 11.6733C12.7745 12.0341 12.0691 12.6716 12.0691 13.5V14.25M21.0688 12C21.0688 16.9706 17.0394 21 12.0688 21C7.09828 21 3.06885 16.9706 3.06885 12C3.06885 7.02944 7.09828 3 12.0688 3C17.0394 3 21.0688 7.02944 21.0688 12ZM12.0688 17.25H12.0763V17.2575H12.0688V17.25Z" stroke="#64748B" stroke-width="1.5" stroke-linecap="round" stroke-linejoin="round"/>
</svg>
